<svg width="18" height="18" viewBox="-2 -2 18 18" fill="none" xmlns="http://www.w3.org/2000/svg">
    <rect x="-2" y="-2" width="100%" height="100%" rx="2" fill="#ffffff"/>
<circle cx="10.9387" cy="2.8" r="2.8" fill="#080908"/>
<path fill-rule="evenodd" clip-rule="evenodd" d="M3.584 14C2.32948 14 1.70222 14 1.22306 13.7559C0.801579 13.5411 0.458902 13.1984 0.244146 12.7769C0 12.2978 0 11.6705 0 10.416V3.36C0 2.83976 0 2.57964 0.0344726 2.36198C0.224233 1.16388 1.16388 0.224233 2.36198 0.0344727C2.57964 0 2.83976 0 3.36 0C3.88024 0 4.14037 0 4.35802 0.0344726C5.55612 0.224233 6.49577 1.16388 6.68553 2.36198C6.72 2.57964 6.72 2.83976 6.72 3.36V7.2797H10.6383C11.1585 7.2797 11.4186 7.2797 11.6363 7.31418C12.8344 7.50394 13.774 8.44359 13.9638 9.64169C13.9983 9.85934 13.9983 10.1195 13.9983 10.6397C13.9983 11.1599 13.9983 11.4201 13.9638 11.6377C13.774 12.8358 12.8344 13.7755 11.6363 13.9652C11.4186 13.9997 11.1585 13.9997 10.6383 13.9997H6.72V14H3.584ZM5.59956 7.2797H5.59827V12.8794H2.23956L2.23956 2.79943C2.23956 1.87159 2.99172 1.11943 3.91956 1.11943C4.8474 1.11943 5.59956 1.87159 5.59956 2.79943V7.2797ZM6.72 12.8801H11.1973C12.1251 12.8801 12.8773 12.1279 12.8773 11.2001C12.8773 10.2722 12.1251 9.52005 11.1973 9.52005H6.72V12.8801Z" fill="#080908"/>
</svg>
